<?xml version="1.0" encoding="UTF-8" standalone="no"?>
<!-- Generator: Adobe Illustrator 22.0.1, SVG Export Plug-In . SVG Version: 6.00 Build 0)  -->

<svg
   version="1.1"
   id="Layer_1"
   x="0px"
   y="0px"
   viewBox="0 0 475 475"
   xml:space="preserve"
   sodipodi:docname="logo.svg"
   width="475"
   height="475"
   inkscape:version="1.4.2 (2aeb623e1d, 2025-05-12)"
   xmlns:inkscape="http://www.inkscape.org/namespaces/inkscape"
   xmlns:sodipodi="http://sodipodi.sourceforge.net/DTD/sodipodi-0.dtd"
   xmlns="http://www.w3.org/2000/svg"
   xmlns:svg="http://www.w3.org/2000/svg"><defs
   id="defs3"><clipPath
     clipPathUnits="userSpaceOnUse"
     id="clipPath1"><rect
       style="fill:#000000;fill-opacity:1"
       id="rect2"
       width="477.54593"
       height="404.49359"
       x="-1.3528214"
       y="-2.7056427" /></clipPath><clipPath
     clipPathUnits="userSpaceOnUse"
     id="clipPath2"><rect
       style="fill:#000000;fill-opacity:1"
       id="rect4"
       width="477.54593"
       height="404.49359"
       x="34.997566"
       y="182.87265" /></clipPath></defs><sodipodi:namedview
   id="namedview3"
   pagecolor="#ffffff"
   bordercolor="#000000"
   borderopacity="0.25"
   inkscape:showpageshadow="2"
   inkscape:pageopacity="0.0"
   inkscape:pagecheckerboard="0"
   inkscape:deskcolor="#d1d1d1"
   inkscape:zoom="1.0453809"
   inkscape:cx="227.66822"
   inkscape:cy="201.36202"
   inkscape:window-width="1374"
   inkscape:window-height="891"
   inkscape:window-x="0"
   inkscape:window-y="0"
   inkscape:window-maximized="1"
   inkscape:current-layer="Layer_1" />
<style
   type="text/css"
   id="style1">
	.st0{fill:#C8102E;}
	.st1{fill:none;}
</style>
<g
   id="g3"
   transform="translate(-30.939103,-154.46341)"
   clip-path="url(#clipPath2)">
	<path
   d="m 1052.2,570.8 21.9,-48.6 c 4.3,-9.6 5.7,-11.7 10.2,-12.8 v -3.3 h -22.9 v 3.3 c 7.6,1.6 8.4,5.5 4.9,13.6 l -8.8,21.1 -11,-24.8 c -2.3,-5.5 -2,-8.6 6,-9.6 v -3.6 l -30.6,0.1 v 3.6 c 3.6,0.9 5,2.4 8.2,9 l 19.5,41.9 -3.3,7 c -1.9,4.1 -3.6,7.1 -5.6,8.9 -1.4,-4.8 -4.1,-7.3 -8.3,-7.3 -4.2,0 -7.8,2.8 -7.8,8.3 0,5.5 4.4,9.5 9.7,9.5 7.5,-0.1 12.2,-3.9 17.9,-16.3 m -31.2,-14.7 -1.7,-3.7 c -3.1,1.4 -5.9,2.1 -8.4,2.1 -5.5,0 -6.9,-2.8 -6.9,-6.6 l -0.1,-35.1 h 14.8 v -6.6 h -14.8 v -10.8 h -2.1 l -20.9,13.8 v 3.7 h 8.5 l 0.1,38.1 c 0,7.6 4.3,11.6 12.8,11.6 6.6,0 13.1,-2.3 18.7,-6.5 m -44.2,1.7 c -7.2,-1 -8.3,-2.6 -8.3,-9 l -0.1,-44.6 h -5.7 l -17.1,11.2 v 2.6 h 8.3 l 0.1,30.9 c 0,6.4 -1.2,7.9 -8.3,9 v 3.6 l 31.1,-0.1 z m -16.7,-62.3 c 4.9,0 8.8,-4 8.8,-9 0,-4.4 -3.4,-8 -7.9,-8 -5.1,0 -9,4 -9,8.9 0,4.5 3.4,8.1 8.1,8.1 m -20.3,48.9 c 0,-10.8 -9,-14.2 -17.4,-16.9 -8.3,-2.7 -14,-4.4 -14,-10.5 0,-3.3 2.4,-6.3 7.2,-6.3 5.9,0 11.2,3.6 17.5,10.7 l 3,-1.4 -4.4,-14.5 h -1.9 l -2.1,1.7 c -3.5,-1.5 -7.2,-2.2 -11,-2.2 -12.4,0 -20.4,7.2 -20.4,17.9 0,10.8 9,14 17.4,16.7 8.3,2.8 14,4.4 14,10.6 0,3.8 -2.9,6.8 -8.5,6.8 -7.8,0 -13.8,-5.1 -20.9,-14.2 l -3.1,1.2 4.6,18.2 h 2 l 3.4,-2.4 c 3.8,1.9 8.2,2.9 12.9,2.9 11.9,0 21.7,-7 21.7,-18.3 M 879.1,558 c -7.6,-1.2 -8.6,-2.8 -8.6,-10 v -24 c 2.3,-4.2 4.5,-7.2 6.9,-9.3 0,4.5 3.2,7.4 7.1,7.4 3.9,0 7.8,-3.2 7.8,-9.2 0,-5.1 -2.9,-8.3 -8.1,-8.3 -5.7,0 -10.1,4.8 -14.3,11.6 v -11.8 h -5.1 l -16.9,11.1 v 2.6 h 8 l 0.1,31 c 0,6.4 -1,8.1 -7.7,9 v 3.6 l 30.9,-0.1 z m -73,-31.5 c 0,-9.5 3.9,-15 11.6,-15.1 5.4,0 8.8,3.8 10.1,11.4 l -21.7,7.5 c 0,-1.3 0,-2.6 0,-3.8 m 36.5,24.7 -3.1,-2.4 c -3.4,3.9 -8.2,6.1 -13.4,6.1 -10.7,0 -16.8,-8.1 -19,-18.7 L 842,524.5 c -0.7,-12.4 -9.8,-19.1 -21.3,-19.1 -16.2,0 -28.1,13.1 -28,29.3 0,16.1 10.3,28.3 28.4,28.3 10.9,-0.1 17.6,-5 21.5,-11.8 m -61.1,-28.6 c 4.3,-9.6 5.7,-11.7 10.2,-12.8 v -3.3 h -22.9 v 3.3 c 7.6,1.6 8.4,5.5 4.9,13.6 l -8.8,21.1 -11,-24.8 c -2.3,-5.5 -2,-8.6 6,-9.6 v -3.6 l -30.6,0.1 v 3.6 c 3.6,0.9 5.1,2.4 8.2,9 l 20,43.2 h 6 z m -53.2,35.7 c -7.2,-1 -8.3,-2.6 -8.3,-9 l -0.1,-44.6 h -5.7 l -17.1,11.2 v 2.6 h 8.3 l 0.1,30.9 c 0,6.4 -1.2,7.9 -8.3,9 v 3.6 l 31.1,-0.1 z M 711.7,496 c 4.9,0 8.8,-4 8.8,-9 0,-4.4 -3.4,-8 -7.9,-8 -5.1,0 -9,4 -9,8.9 0,4.5 3.4,8.1 8.1,8.1 m -58.8,62.4 c -6.6,-0.9 -7.7,-2.6 -7.7,-9 l -0.1,-26.9 c 5.8,-5.3 10.6,-7.8 14.8,-7.8 5.7,0 7.4,2.9 7.4,8.1 l 0.1,26.6 c 0,6.4 -1,8.1 -7.7,9 v 3.6 l 30,-0.1 v -3.6 c -6.6,-0.9 -7.7,-2.6 -7.7,-9 l -0.1,-27.9 c 0,-9.3 -4,-16 -15.8,-15.9 -7.2,0 -14.3,4.4 -21.3,10.4 v -11.2 h -5.4 l -16.9,11.1 v 2.6 h 8 l 0.1,31 c 0,6.4 -1,8.1 -7.7,9 v 3.6 l 30,-0.1 z m -127.1,-68.3 0.1,35 c 0,22.6 11.8,38.3 41.6,38.3 29.7,-0.1 41.5,-15.8 41.4,-37.9 l -0.1,-28.1 c 0,-13.6 3.8,-17.1 10.4,-19 v -3.6 l -28.2,0.1 v 3.6 c 6.7,1.9 10.5,5.4 10.5,19 l 0.1,28.1 c 0,19.7 -10.3,28.8 -29.9,28.8 -19.5,0 -30,-9 -30,-28.7 l -0.1,-35.4 c 0,-8.9 2.6,-10.4 9.9,-11.4 v -3.8 l -35.4,0.1 v 3.8 c 7.3,0.7 9.7,2.3 9.7,11.1"
   id="path1" />
	<path
   d="m 1199.9,423.6 c -6.6,-0.9 -7.7,-2.6 -7.7,-9 l -0.1,-26.9 c 5.8,-5.3 10.6,-7.8 14.8,-7.8 5.7,0 7.4,2.9 7.4,8.1 l 0.1,26.6 c 0,6.4 -1,8.1 -7.7,9 v 3.6 l 30,-0.1 v -3.6 c -6.6,-0.9 -7.7,-2.6 -7.7,-9 l -0.1,-27.9 c 0,-9.3 -4,-16 -15.8,-15.9 -7.2,0 -14.3,4.4 -21.3,10.4 V 370 h -5.4 l -16.9,11.1 v 2.6 h 8 l 0.1,31 c 0,6.4 -1,8.1 -7.7,9 v 3.6 l 30,-0.1 z m -46.4,0.1 c -7.6,-1.2 -8.6,-2.8 -8.6,-10 v -24 c 2.3,-4.2 4.5,-7.2 6.9,-9.3 0,4.5 3.2,7.4 7.1,7.4 4,0 7.8,-3.2 7.8,-9.2 0,-5.1 -2.9,-8.3 -8.1,-8.3 -5.7,0 -10.1,4.8 -14.3,11.6 v -11.8 h -5.1 l -16.9,11.1 v 2.6 h 8 l 0.1,31 c 0,6.4 -1,8.1 -7.7,9 v 3.6 l 30.9,-0.1 z m -73,-31.6 c 0,-9.5 3.9,-15 11.6,-15.1 5.4,0 8.8,3.8 10.1,11.4 l -21.7,7.5 c 0,-1.2 0,-2.5 0,-3.8 m 36.5,24.8 -3.1,-2.4 c -3.4,3.9 -8.2,6.1 -13.4,6.1 -10.7,0 -16.8,-8.1 -19,-18.7 l 34.9,-11.7 c -0.7,-12.4 -9.8,-19.1 -21.3,-19.1 -16.2,0 -28.1,13.1 -28,29.3 0,16.1 10.3,28.3 28.4,28.3 10.9,-0.2 17.6,-5 21.5,-11.8 m -53.8,5.3 -1.7,-3.7 c -3.1,1.4 -5.9,2.1 -8.4,2.1 -5.5,0 -6.9,-2.8 -6.9,-6.6 l -0.1,-35.1 h 14.8 v -6.6 h -14.8 v -10.8 h -2.1 l -20.9,13.8 v 3.7 h 8.5 l 0.1,38.1 c 0,7.6 4.3,11.6 12.8,11.6 6.6,0 13.1,-2.3 18.7,-6.5 m -44.1,-11.8 c 0,-10.8 -9,-14.2 -17.4,-16.9 -8.3,-2.7 -14,-4.4 -14,-10.5 0,-3.3 2.4,-6.3 7.2,-6.3 5.9,0 11.2,3.6 17.5,10.7 l 3,-1.4 -4.4,-14.5 h -1.9 l -2.1,1.7 c -3.5,-1.5 -7.2,-2.2 -11,-2.2 -12.4,0 -20.4,7.2 -20.4,17.9 0,10.8 9,14 17.4,16.7 8.3,2.8 14,4.4 14,10.6 0,3.8 -2.9,6.8 -8.5,6.8 -7.8,0 -13.8,-5.1 -20.9,-14.2 l -3.1,1.2 4.6,18.2 h 2 l 3.4,-2.4 c 3.8,1.9 8.2,2.9 12.9,2.9 12,0 21.7,-7 21.7,-18.3 m -89.7,2.4 c 0,-5.9 2.7,-8.8 16.3,-12.5 v 16.9 c -3.3,2.6 -6.2,3.8 -9.1,3.8 -4.5,-0.1 -7.2,-2.5 -7.2,-8.2 m 25.7,15.6 c 5,0 10.4,-2.4 13.9,-4.8 l -1,-3.3 c -5.7,1 -7.8,0.2 -7.8,-3.6 l -0.1,-31.1 c 0,-9.3 -4.1,-14.3 -17.3,-14.3 -14.8,0 -25.6,8 -25.6,15.4 0,3.6 2.5,6.6 6.7,6.6 4.8,0 7.1,-3.2 7.8,-6.3 0.7,-3.6 -0.5,-6.3 -2.2,-7.8 2.9,-1.4 5.8,-2.1 8.8,-2.1 5,0 7.5,1.7 7.5,6.3 v 11.7 c -20.8,5.2 -30.4,9.7 -30.4,20.8 0,8.5 5.5,13 14.1,13 5.5,0 11.8,-2.4 17.1,-6.5 0.8,3.8 3.5,6 8.5,6 m -82.7,-35.9 c 0,-9.5 3.9,-15 11.6,-15.1 5.4,0 8.8,3.8 10.1,11.4 l -21.7,7.5 c 0,-1.3 0,-2.5 0,-3.8 m 36.5,24.8 -3.1,-2.4 c -3.4,3.9 -8.2,6.1 -13.4,6.1 -10.7,0 -16.8,-8.1 -19,-18.7 l 34.9,-11.7 c -0.7,-12.4 -9.8,-19.1 -21.3,-19.1 -16.2,0 -28.1,13.1 -28,29.3 0,16.1 10.3,28.3 28.4,28.3 10.9,-0.2 17.6,-5.1 21.5,-11.8 m -92.7,7 c -6.6,-0.9 -7.7,-2.6 -7.7,-9 l -0.1,-27 c 5.6,-5.1 9.9,-7.7 14.8,-7.7 5.7,0 7.4,2.9 7.4,8.1 l 0.1,26.6 c 0,6.4 -1,8.1 -7.7,9 v 3.6 l 30,-0.1 v -3.6 c -6.6,-0.9 -7.7,-2.6 -7.7,-9 l -0.1,-27.9 c 0,-9.3 -4,-16 -15.8,-15.9 -7.1,0 -14.1,4.2 -21,10.1 l -0.1,-46.1 H 804 l -18.7,12.3 v 2.6 h 8.5 l 0.1,65.1 c 0,6.4 -1,8.1 -7.7,9 v 3.6 l 30,-0.1 z M 782.7,422.7 781,419 c -3.1,1.4 -5.9,2.1 -8.4,2.1 -5.5,0 -6.9,-2.8 -6.9,-6.6 l -0.1,-35.1 h 14.8 v -6.6 H 765.6 V 362 h -2.1 l -20.9,13.8 v 3.7 h 8.5 l 0.1,38.1 c 0,7.6 4.3,11.6 12.8,11.6 6.6,0 13.1,-2.3 18.7,-6.5 m -57.1,1.7 c -7.6,-1.2 -8.6,-2.8 -8.6,-10 v -24 c 2.3,-4.2 4.5,-7.2 6.9,-9.3 0,4.5 3.2,7.4 7.1,7.4 3.9,0 7.8,-3.2 7.8,-9.2 0,-5.1 -2.9,-8.3 -8.1,-8.3 -5.7,0 -10.1,4.8 -14.3,11.6 v -11.8 h -5.1 L 694.4,382 v 2.6 h 8 l 0.1,31 c 0,6.4 -1,8.1 -7.7,9 v 3.6 l 30.9,-0.1 c 0,-0.1 -0.1,-3.7 -0.1,-3.7 z m -84.2,-29.8 c 0,-10.5 4.5,-17.1 14.1,-17.2 12.4,0 16,15.1 16,29 0,10.5 -4.5,17.1 -14.1,17.2 -12.3,0.1 -15.9,-15.1 -16,-29 m 44.7,5.2 c 0,-15.3 -10.3,-28.1 -29.1,-28 -18.9,0 -30.2,13.7 -30.1,29.5 0,15.3 10.3,28.1 29.1,28 18.8,0 30.1,-13.6 30.1,-29.5 M 610,363.5 c 0,-13.6 3.8,-17.1 10.4,-19 v -3.6 l -28.2,0.1 v 3.6 c 6.7,1.9 10.5,5.4 10.5,19 l 0.1,41 -59.5,-59.9 c -3.3,-3.3 -4.5,-3.6 -6.7,-3.6 h -22 v 3.6 c 4.8,0.5 7.6,2.3 13.1,7.6 1.7,1.6 3.4,3.6 3.4,6.9 l 0.1,46.7 c 0,13.6 -3.8,17.1 -10.4,19 v 3.6 l 28.2,-0.1 v -3.6 c -6.7,-1.9 -10.5,-5.4 -10.5,-19 l -0.1,-44.1 67,67.1 h 4.8 z"
   id="path2" />
	<path
   class="st0"
   d="m 443.4,312.5 c 0,-57 19.2,-75.7 57.5,-90.2 V 213 H 375.2 v 9.3 c 38.3,14.5 57.5,33.2 57.5,90.2 V 479.8 L 166.8,225.6 C 154.6,214.4 151.4,213 143.4,213 h -100 v 9.3 c 22,2.3 35,8.4 66.8,39.3 l 12.2,11.7 v 190.6 c 0,57 -19.2,75.7 -57.5,90.2 v 9.3 h 125.7 v -9.3 C 152.3,539.6 133.1,520.9 133.1,463.9 V 282.1 L 434,565.7 h 9.3 z"
   id="path3" />
</g>
<rect
   x="13.3"
   y="188.39999"
   class="st1"
   width="1253.4"
   height="423.29999"
   id="rect3"
   clip-path="url(#clipPath1)"
   transform="translate(5.4112855,31.114891)" />
<g
   style="fill:none;fill-opacity:1;stroke:#7e7e7e;stroke-width:5.8317988;stroke-linecap:square;stroke-linejoin:miter;stroke-dasharray:none;stroke-opacity:1;paint-order:normal"
   id="g5"
   transform="matrix(12.221958,0,0,12.221958,99.009725,78.785755)"><path
     d="M 5,12 H 19"
     stroke="#323232"
     stroke-width="2"
     stroke-linecap="round"
     stroke-linejoin="round"
     id="path1-3"
     style="fill:none;fill-opacity:1;stroke:#7e7e7e;stroke-width:5.8317988;stroke-linecap:square;stroke-linejoin:miter;stroke-dasharray:none;stroke-opacity:1;paint-order:normal" /><path
     d="M 12,5 V 19"
     stroke="#323232"
     stroke-width="2"
     stroke-linecap="round"
     stroke-linejoin="round"
     id="path2-6"
     style="fill:none;fill-opacity:1;stroke:#7e7e7e;stroke-width:5.8317988;stroke-linecap:square;stroke-linejoin:miter;stroke-dasharray:none;stroke-opacity:1;paint-order:normal" /></g></svg>
